<?xml version="1.0" encoding="utf-8"?><svg xmlns="http://www.w3.org/2000/svg" xmlns:xlink="http://www.w3.org/1999/xlink"><symbol viewBox="0 0 48 48" id="Instagram" xmlns="http://www.w3.org/2000/svg"><path d="M24 4.322c6.413 0 7.172.028 9.694.14 2.343.104 3.61.497 4.453.825 1.116.432 1.922.957 2.756 1.791.844.844 1.36 1.64 1.79 2.756.329.844.723 2.12.826 4.454.112 2.53.14 3.29.14 9.693 0 6.413-.028 7.172-.14 9.694-.103 2.344-.497 3.61-.825 4.453-.431 1.116-.957 1.922-1.79 2.756-.845.844-1.642 1.36-2.757 1.791-.844.328-2.119.722-4.453.825-2.532.112-3.29.14-9.694.14-6.413 0-7.172-.028-9.694-.14-2.343-.103-3.61-.497-4.453-.825-1.115-.431-1.922-.956-2.756-1.79-.844-.844-1.36-1.641-1.79-2.757-.329-.844-.723-2.119-.826-4.453-.112-2.531-.14-3.29-.14-9.694 0-6.412.028-7.172.14-9.694.103-2.343.497-3.609.825-4.453.431-1.115.957-1.921 1.79-2.756.845-.844 1.642-1.36 2.757-1.79.844-.329 2.119-.722 4.453-.825 2.522-.113 3.281-.141 9.694-.141zM24 0c-6.516 0-7.331.028-9.89.14-2.55.113-4.304.526-5.822 1.116-1.585.619-2.926 1.435-4.257 2.775-1.34 1.332-2.156 2.672-2.775 4.247C.666 9.806.253 11.55.141 14.1.028 16.669 0 17.484 0 24s.028 7.331.14 9.89c.113 2.55.526 4.304 1.116 5.822.619 1.585 1.435 2.925 2.775 4.257a11.732 11.732 0 004.247 2.765c1.528.591 3.272 1.003 5.822 1.116 2.56.112 3.375.14 9.89.14 6.516 0 7.332-.028 9.891-.14 2.55-.113 4.303-.525 5.822-1.116a11.732 11.732 0 004.247-2.765 11.732 11.732 0 002.766-4.247c.59-1.528 1.003-3.272 1.115-5.822.113-2.56.14-3.375.14-9.89 0-6.516-.027-7.332-.14-9.891-.112-2.55-.525-4.303-1.115-5.822-.591-1.594-1.407-2.935-2.747-4.266a11.732 11.732 0 00-4.247-2.765C38.194.675 36.45.262 33.9.15 31.331.028 30.516 0 24 0z"/><path d="M24 11.672c-6.806 0-12.328 5.522-12.328 12.328 0 6.806 5.522 12.328 12.328 12.328 6.806 0 12.328-5.522 12.328-12.328 0-6.806-5.522-12.328-12.328-12.328zm0 20.325a7.998 7.998 0 010-15.994 7.998 7.998 0 010 15.994zm15.694-20.813a2.879 2.879 0 11-2.878-2.878 2.885 2.885 0 012.878 2.878z"/></symbol><symbol viewBox="0 0 93.1 92.3" id="icon1_big" xmlns="http://www.w3.org/2000/svg"><path d="M65.5 26.1l-2.5.4-.2-.1c-1.8-.7-3.7.1-5.1.8l-.4.2-15.7 2.4.2-1.2c.2-1.1.2-2.2-.1-3.2l-.3-1.1h24.1v1.8zM29.2 10.7c0 .9-10.1-2.5-10.1-2.5S16 14.3 16 10.7s2.9-6.5 6.6-6.5 6.6 2.9 6.6 6.5zM36.2 90.4c.2.7-1.1-1.7-1.5-1-.3.6-1.7-1.9-2.4-1.7-1.5.4-.5-.4-1-1.9L24.5 63l-4.9-.8c-1.4.4 0 .8-1.4.4l-.5 2-8 23.4c-.3.7-4.6 2.7-5.4 3-.3.1-1.9-3-2.3-3-.5 0 1.5 1.5 1.1 1.3-1.1-.6-1.6-2.1-1.2-3.4l11.6-30.4v-27c0-1.9.3-3.2 1.7-4.5 1.4-1.3 1.3-2.3 3.2-2.1 2.4.2 4.5 1.9 5.5 4.4l.4 1 .6 1.9c-2.8 0-3.3 0-3.3 2.8s-1.7 3.6 1.1 3.6l1.7 2v18l11.8 34.8zm-7.1-54H26c-1.5 0-2.8.6-2.8-.9s-2.8-2.7-1.3-2.7h7.2l6.7-5.3c.6-.5 1.2-.7 2-.6.7.1 1.4.4 1.8 1s.7 1.3.6 2c-.1.7-1-.2-1.5.2l-9.6 6.3zM62 35.3l-.2.2-20.1 8.4-12.1-.3.2-3H40l22.6-10.3-.2 1.1-.4.2-.5.5.6-.5c.9 1.1.8 2.6-.1 3.7z"/><circle cx="24.6" cy="9.4" r="7.9"/><path d="M17.1 9.4h20.2M21.6 22.8c2.9 0 5.3 2.3 5.5 5.2l-.3.4H24c-2.3 0-4.9 1.8-4.9 4.4 0 .9.2 2.5 1.5 3.8.6.6 1.7 1.4 3.5 1.4h3.1v18.1l.2.5 10.3 30.1c.2.6.1 1.2-.1 1.7-.3.5-.8.9-1.4 1.1-.2 0-.4.1-.5.1-.9 0-1.7-.6-2-1.4l-8-23.5-.7-2-2.1-.1-2.9-.1-2.1-.1-.9 1.7-9.5 23-.4.9c-.3.8-1.1 1.3-2 1.3-.3 0-.5-.1-.8-.2-1.1-.4-1.6-1.7-1.2-2.7l.5-1.3 11.5-28.7.2-.5V29.1c0-3.5 2.9-6.3 6.3-6.3m0-3c-5.2 0-9.3 4.2-9.3 9.3v26.3L.9 84l-.5 1.3c-1 2.6.2 5.5 2.8 6.6.6.3 1.3.4 1.9.4 2 0 4-1.2 4.8-3.2l.4-.9 9.5-22.9 2.9.1 8 23.5c.7 2.1 2.7 3.5 4.9 3.5.4 0 .8-.1 1.3-.2 2.9-.7 4.6-3.8 3.6-6.7L30.2 55.4V36.2l-1-1.4h-5.1c-1.6 0-1.9-1.3-1.9-2.1s1.2-1.4 1.9-1.4h4.1l2-2.3v-.8c0-4.6-3.9-8.4-8.6-8.4z"/><path d="M60.8 28.8c.7 0 1.3.4 1.7 1 .3.5.3 1 .2 1.5-.2.5-.5.9-1 1.1l-20.2 10H30.1v-3.9h9.2l.6-.3L60 29c.3-.2.5-.2.8-.2m0-3c-.7 0-1.4.1-2 .4l-20 9.2H27.2v9.8h15L63 35.1c2.5-1.2 3.5-4.4 2.1-6.8-.9-1.6-2.6-2.5-4.3-2.5z"/><path d="M64.6 24.8v.6l-22.5 3c.1-.9.1-1.8-.1-2.7-.1-.3-.1-.6-.2-.9h22.8m3-3H36c3.4 2 4.3 6.6 1.7 9.7l-.4.5 30.4-4v-6.2h-.1z"/><path d="M93.1 21.8H60.7v2.9h32.4v-2.9zm-56.6 3c.6 0 1.2.3 1.5.7.3.4.5.9.4 1.4-.1.5-.3 1-.7 1.3l-8.3 6.5h-5.3c-1.1 0-1.9-.9-1.9-1.9 0-1.1.9-1.9 1.9-1.9H28l.8-.6 6.5-5c.4-.5.9-.5 1.2-.5m0-3c-1.1 0-2.2.4-3.1 1.1l-6.4 5h-2.9c-2.7 0-4.9 2.2-4.9 4.9s2.2 4.9 4.9 4.9h6.3l9.1-7.2c2.1-1.7 2.5-4.8.8-6.9-.9-1.2-2.4-1.8-3.8-1.8z"/></symbol><symbol viewBox="0 0 93.1 92.3" id="icon1_small" xmlns="http://www.w3.org/2000/svg"><path d="M65.5 26.1l-2.5.4-.2-.1c-1.8-.7-3.7.1-5.1.8l-.4.2-15.7 2.4.2-1.2c.2-1.1.2-2.2-.1-3.2l-.3-1.1h24.1v1.8zM29.2 10.7c0 .9-10.1-2.5-10.1-2.5S16 14.3 16 10.7s2.9-6.5 6.6-6.5 6.6 2.9 6.6 6.5zM36.2 90.4c.2.7-1.1-1.7-1.5-1-.3.6-1.7-1.9-2.4-1.7-1.5.4-.5-.4-1-1.9L24.5 63l-4.9-.8c-1.4.4 0 .8-1.4.4l-.5 2-8 23.4c-.3.7-4.6 2.7-5.4 3-.3.1-1.9-3-2.3-3-.5 0 1.5 1.5 1.1 1.3-1.1-.6-1.6-2.1-1.2-3.4l11.6-30.4v-27c0-1.9.3-3.2 1.7-4.5 1.4-1.3 1.3-2.3 3.2-2.1 2.4.2 4.5 1.9 5.5 4.4l.4 1 .6 1.9c-2.8 0-3.3 0-3.3 2.8s-1.7 3.6 1.1 3.6l1.7 2v18l11.8 34.8zm-7.1-54H26c-1.5 0-2.8.6-2.8-.9s-2.8-2.7-1.3-2.7h7.2l6.7-5.3c.6-.5 1.2-.7 2-.6.7.1 1.4.4 1.8 1s.7 1.3.6 2c-.1.7-1-.2-1.5.2l-9.6 6.3zM62 35.3l-.2.2-20.1 8.4-12.1-.3.2-3H40l22.6-10.3-.2 1.1-.4.2-.5.5.6-.5c.9 1.1.8 2.6-.1 3.7z"/><circle cx="24.6" cy="9.4" r="7.9"/><path d="M17.1 9.4h20.2M21.6 22.8c2.9 0 5.3 2.3 5.5 5.2l-.3.4H24c-2.3 0-4.9 1.8-4.9 4.4 0 .9.2 2.5 1.5 3.8.6.6 1.7 1.4 3.5 1.4h3.1v18.1l.2.5 10.3 30.1c.2.6.1 1.2-.1 1.7-.3.5-.8.9-1.4 1.1-.2 0-.4.1-.5.1-.9 0-1.7-.6-2-1.4l-8-23.5-.7-2-2.1-.1-2.9-.1-2.1-.1-.9 1.7-9.5 23-.4.9c-.3.8-1.1 1.3-2 1.3-.3 0-.5-.1-.8-.2-1.1-.4-1.6-1.7-1.2-2.7l.5-1.3 11.5-28.7.2-.5V29.1c0-3.5 2.9-6.3 6.3-6.3m0-3c-5.2 0-9.3 4.2-9.3 9.3v26.3L.9 84l-.5 1.3c-1 2.6.2 5.5 2.8 6.6.6.3 1.3.4 1.9.4 2 0 4-1.2 4.8-3.2l.4-.9 9.5-22.9 2.9.1 8 23.5c.7 2.1 2.7 3.5 4.9 3.5.4 0 .8-.1 1.3-.2 2.9-.7 4.6-3.8 3.6-6.7L30.2 55.4V36.2l-1-1.4h-5.1c-1.6 0-1.9-1.3-1.9-2.1s1.2-1.4 1.9-1.4h4.1l2-2.3v-.8c0-4.6-3.9-8.4-8.6-8.4z"/><path d="M60.8 28.8c.7 0 1.3.4 1.7 1 .3.5.3 1 .2 1.5-.2.5-.5.9-1 1.1l-20.2 10H30.1v-3.9h9.2l.6-.3L60 29c.3-.2.5-.2.8-.2m0-3c-.7 0-1.4.1-2 .4l-20 9.2H27.2v9.8h15L63 35.1c2.5-1.2 3.5-4.4 2.1-6.8-.9-1.6-2.6-2.5-4.3-2.5z"/><path d="M64.6 24.8v.6l-22.5 3c.1-.9.1-1.8-.1-2.7-.1-.3-.1-.6-.2-.9h22.8m3-3H36c3.4 2 4.3 6.6 1.7 9.7l-.4.5 30.4-4v-6.2h-.1z"/><path d="M93.1 21.8H60.7v2.9h32.4v-2.9zm-56.6 3c.6 0 1.2.3 1.5.7.3.4.5.9.4 1.4-.1.5-.3 1-.7 1.3l-8.3 6.5h-5.3c-1.1 0-1.9-.9-1.9-1.9 0-1.1.9-1.9 1.9-1.9H28l.8-.6 6.5-5c.4-.5.9-.5 1.2-.5m0-3c-1.1 0-2.2.4-3.1 1.1l-6.4 5h-2.9c-2.7 0-4.9 2.2-4.9 4.9s2.2 4.9 4.9 4.9h6.3l9.1-7.2c2.1-1.7 2.5-4.8.8-6.9-.9-1.2-2.4-1.8-3.8-1.8z"/></symbol><symbol viewBox="0 0 95.8 91.8" id="icon2_big" xmlns="http://www.w3.org/2000/svg"><path d="M65.8 13.5c0-.3.2-.6.2-.9l.5-.6.9-2.2-1.4.8h6.9l.2.8c.3 1.5.5 3.1.5 4.8 0 5.8-1.2 10.8-4.6 13.6-2 1.6-3.9 1.3-6.7 1.3H62l-1-.4h-.4c2.9-4.7 5.2-10.3 5.2-17.2zM29.4 7l.1-.8h33l.1.8c.3 1.9.5 3.9.5 6 0 9.9-1.9 19.2-10.7 22l.5 1 .6 1.3c.4.7-.6 2.3-.6 3.1 0 .9-.3.1-.8.9l-1.3.6h-.1c3.2 1.2 5.3 6.6 6.4 10.2l.4 1.3H34.8l.4-1.3c1-3.6 3.4-8.8 6.6-9.9l1.3-1.2-.4-.3c-.5-.7-.4.1-.4-.8 0-.8-.5-.8-.1-1.5l.7-1.1.2-2.2C34.3 32.3 29 23 29 13.1c-.1-2.3.1-4.3.4-6.1zm6 23.4l-4 .5-1.4-.4-.3-.1c-2.8 0-3.6-.6-5.6-2.2-3.4-2.8-6.3-6.2-6.3-12 0-1.7.2-3.3.5-4.8l.2-.8h11.1l-.2 1.6-.2 1.6c0 .3.4 1.6.4 1.9.1 7 2.9 10 5.8 14.7zM89.6 90.9H0v.5-24.2h24.8V75h3V57.2h34.1v18.4-.3h6.3v1-1h21.4"/><path d="M49.7 29.8l1.4 1.8s7.4-4.7 7-21.2h-2.5c0 .1 1.1 12.2-5.9 19.4zM65.2 54v18h27.6v16.9H3V64h27.8V54h34.4m3-3H27.8v10H0v30.8h95.8V68.9H68.2V51z"/><path d="M68.3 71.3h-3.1v4h3.1v-4zm0 14h-3.1v4h3.1v-4zm-37.6 0h-3.1v4h3.1v-4zm.1-21.6h-3.1V75h3.1V63.7zM34.7 51.3s.5-7.5 7.3-10.9c0 0-1.1-1.8 0-4.8 0 0-3.3-1.4-6.5-5.2-4.1-4.9-8.2-13.7-5.6-28.9H66s.2.7.4 1.9c1 6 2.6 24.5-12.4 32.2 0 0 .8 2.6-.1 4.8 0 0 6.4 3 7.2 10.3l-.1 1.6"/><path d="M28.7 6.3H19s-7.5 24.5 17.3 25m30.5-25h9.7s7.3 23.9-16.4 25"/></symbol><symbol viewBox="0 0 95.8 91.8" id="icon2_small" xmlns="http://www.w3.org/2000/svg"><path d="M65.8 13.5c0-.3.2-.6.2-.9l.5-.6.9-2.2-1.4.8h6.9l.2.8c.3 1.5.5 3.1.5 4.8 0 5.8-1.2 10.8-4.6 13.6-2 1.6-3.9 1.3-6.7 1.3H62l-1-.4h-.4c2.9-4.7 5.2-10.3 5.2-17.2zM29.4 7l.1-.8h33l.1.8c.3 1.9.5 3.9.5 6 0 9.9-1.9 19.2-10.7 22l.5 1 .6 1.3c.4.7-.6 2.3-.6 3.1 0 .9-.3.1-.8.9l-1.3.6h-.1c3.2 1.2 5.3 6.6 6.4 10.2l.4 1.3H34.8l.4-1.3c1-3.6 3.4-8.8 6.6-9.9l1.3-1.2-.4-.3c-.5-.7-.4.1-.4-.8 0-.8-.5-.8-.1-1.5l.7-1.1.2-2.2C34.3 32.3 29 23 29 13.1c-.1-2.3.1-4.3.4-6.1zm6 23.4l-4 .5-1.4-.4-.3-.1c-2.8 0-3.6-.6-5.6-2.2-3.4-2.8-6.3-6.2-6.3-12 0-1.7.2-3.3.5-4.8l.2-.8h11.1l-.2 1.6-.2 1.6c0 .3.4 1.6.4 1.9.1 7 2.9 10 5.8 14.7zM89.6 90.9H0v.5-24.2h24.8V75h3V57.2h34.1v18.4-.3h6.3v1-1h21.4"/><path d="M49.7 29.8l1.4 1.8s7.4-4.7 7-21.2h-2.5c0 .1 1.1 12.2-5.9 19.4zM65.2 54v18h27.6v16.9H3V64h27.8V54h34.4m3-3H27.8v10H0v30.8h95.8V68.9H68.2V51z"/><path d="M68.3 71.3h-3.1v4h3.1v-4zm0 14h-3.1v4h3.1v-4zm-37.6 0h-3.1v4h3.1v-4zm.1-21.6h-3.1V75h3.1V63.7zM34.7 51.3s.5-7.5 7.3-10.9c0 0-1.1-1.8 0-4.8 0 0-3.3-1.4-6.5-5.2-4.1-4.9-8.2-13.7-5.6-28.9H66s.2.7.4 1.9c1 6 2.6 24.5-12.4 32.2 0 0 .8 2.6-.1 4.8 0 0 6.4 3 7.2 10.3l-.1 1.6"/><path d="M28.7 6.3H19s-7.5 24.5 17.3 25m30.5-25h9.7s7.3 23.9-16.4 25"/></symbol><symbol viewBox="0 0 66.3 88.2" id="icon3_big" xmlns="http://www.w3.org/2000/svg"><path d="M1.2 63.5v-52c.9.4 1.9.5 3.2.5l2.2.2v57.5c-4.4-1-5.2-5.4-5.4-6.2zm53.4 6.3H10.2V17h44.3l.1 52.8z"/><path d="M3 13c.9.4 2.1.6 3.7.6h50.8v55.1H12c-4.9 0-9-4-9-9V13M0 6.8v52.8c0 6.6 5.4 12 12 12h48.5V10.5H6.7c-.8 0-2-.1-2.7-.4-1.1-.5-4-3.3-4-3.3z"/><path d="M49.4 3v7.5H6.8C4.7 10.5 3 8.8 3 6.8 3 4.7 4.7 3 6.8 3h42.6m1.5-3H6.8C3 0 0 3 0 6.8c0 3.7 3 6.8 6.8 6.8h44.1c.8 0 1.5-.7 1.5-1.5V1.5c0-.8-.7-1.5-1.5-1.5zM10.2 12.6v56.5M31.9 46.6l.5-6.5 4.7-4.3 3.9-1 5.4-2.5 6.5 2.1 3.4 1.1 4.7 4.7.8 5.8 2.9 3.8-4.2 5.7-1.1 4.2s-1.4 4-1.4 4.2 1 21.7 1 21.7l-11.9-7.1-12.5 5.9V62.3l-1.5-5.2-.7-4.9-2.8-3 2.3-2.6z"/><path d="M48.9 79.6c-.5-.3-2.9-.6-3.4-.3l-10.7 6-.7-17.8c.2.1 0-4.8.2-4.8l7.1 2.3 3.5-.4c.6.4 1.3.2 1.9-.2l3.5.1 4.1-1.1c.2 0 .3 1.1.5 1.1v18.6l-6-3.5zm12.2-23.4c-.2.3-.5 1.6-.5 1.9l-2.2 1.5-1.8 2c-.3.2 0 1.3-.2 1.6l.6.9-7.8.9c-.3 0-.8.1-1 .3l-3 2-3-2c-.3-.2-.6-.3-1-.3h-.1l-3.6.2-1.6-3.2c-.2-.3-.5-.6-.8-.8l-3.2-1.6.2-3.6c0-.3-.1-.8-.3-1l-2-3v-2.7c.2-.3.1-1.4.1-1.7l2-3.2-.1-2.6c.3-.2.8-1.1 1-1.4l2.3-1.8 6 .4c.3 0 .8-.1 1-.3l3-2 3 2c.3.2.7.3 1 .3l3.6-.2 1.6 3.2c.2.3.5.6.8.8l3.2 1.6V48c0 .3.1.8.3 1l2 3 .5 4.2z"/><path d="M46.6 54.3c-2.8 0-5.1-2.2-5.1-5s2.3-5 5.1-5 5.1 2.2 5.1 5c-.1 2.8-2.3 5-5.1 5z"/><path d="M45.8 55.6c-2.7 0-4.9-2.2-4.9-4.9s2.2-4.9 4.9-4.9 4.9 2.2 4.9 4.9-2.2 4.9-4.9 4.9zM34.1 60.3v25.4l12.6-6.8L59 85.4V60.3"/><path d="M46.7 33.7l2.8 1.8.8.5h.9l3.2-.1 1.8 2.9.4.7.7.4 3.1 1.6-.1 3.5-.1 1 .6.8 1.8 2.7-1.9 2.9-.5.8v.9l.2 3.3-2.4 1.4-.6.3-.4.6-2.6 3.6-3-.1h-1l-.8.5-2.8 1.8-2.8-1.8-.8-.5h-1l-3.1.1-2.7-3.5-.4-.5-.5-.3-2.5-1.4.2-3.4v-.9l-.5-.8-1.8-2.9 1.7-2.7.5-.8v-.9l-.1-3.7 2.7-1.2.9-.4.4-.9 1.7-3.2 3.3.2 1 .1.9-.6 2.8-1.8m0-3.6L42.2 33l-5.2-.4-2.7 4.9-4.5 2 .1 5.7-2.7 4.3L30 54l-.2 5.3 4.2 2.3 3.6 4.7 4.6-.2 4.4 2.9 4.5-2.9 4.6.2 3.6-4.9 4.2-2.3-.3-5.2 2.9-4.6-3-4.3.3-5.4-4.8-2.5-2.7-4.4-4.9.1-4.3-2.7z"/><path d="M46.8 45c2.4 0 4.4 2 4.4 4.4s-2 4.4-4.4 4.4-4.4-2-4.4-4.4 2-4.4 4.4-4.4m0-3c-4.1 0-7.4 3.3-7.4 7.4s3.3 7.4 7.4 7.4c4.1 0 7.4-3.3 7.4-7.4S50.9 42 46.8 42z"/></symbol><symbol viewBox="0 0 66.3 88.2" id="icon3_small" xmlns="http://www.w3.org/2000/svg"><path d="M1.2 63.5v-52c.9.4 1.9.5 3.2.5l2.2.2v57.5c-4.4-1-5.2-5.4-5.4-6.2zm53.4 6.3H10.2V17h44.3l.1 52.8z"/><path d="M3 13c.9.4 2.1.6 3.7.6h50.8v55.1H12c-4.9 0-9-4-9-9V13M0 6.8v52.8c0 6.6 5.4 12 12 12h48.5V10.5H6.7c-.8 0-2-.1-2.7-.4-1.1-.5-4-3.3-4-3.3z"/><path d="M49.4 3v7.5H6.8C4.7 10.5 3 8.8 3 6.8 3 4.7 4.7 3 6.8 3h42.6m1.5-3H6.8C3 0 0 3 0 6.8c0 3.7 3 6.8 6.8 6.8h44.1c.8 0 1.5-.7 1.5-1.5V1.5c0-.8-.7-1.5-1.5-1.5zM10.2 12.6v56.5M31.9 46.6l.5-6.5 4.7-4.3 3.9-1 5.4-2.5 6.5 2.1 3.4 1.1 4.7 4.7.8 5.8 2.9 3.8-4.2 5.7-1.1 4.2s-1.4 4-1.4 4.2 1 21.7 1 21.7l-11.9-7.1-12.5 5.9V62.3l-1.5-5.2-.7-4.9-2.8-3 2.3-2.6z"/><path d="M48.9 79.6c-.5-.3-2.9-.6-3.4-.3l-10.7 6-.7-17.8c.2.1 0-4.8.2-4.8l7.1 2.3 3.5-.4c.6.4 1.3.2 1.9-.2l3.5.1 4.1-1.1c.2 0 .3 1.1.5 1.1v18.6l-6-3.5zm12.2-23.4c-.2.3-.5 1.6-.5 1.9l-2.2 1.5-1.8 2c-.3.2 0 1.3-.2 1.6l.6.9-7.8.9c-.3 0-.8.1-1 .3l-3 2-3-2c-.3-.2-.6-.3-1-.3h-.1l-3.6.2-1.6-3.2c-.2-.3-.5-.6-.8-.8l-3.2-1.6.2-3.6c0-.3-.1-.8-.3-1l-2-3v-2.7c.2-.3.1-1.4.1-1.7l2-3.2-.1-2.6c.3-.2.8-1.1 1-1.4l2.3-1.8 6 .4c.3 0 .8-.1 1-.3l3-2 3 2c.3.2.7.3 1 .3l3.6-.2 1.6 3.2c.2.3.5.6.8.8l3.2 1.6V48c0 .3.1.8.3 1l2 3 .5 4.2z"/><path d="M46.6 54.3c-2.8 0-5.1-2.2-5.1-5s2.3-5 5.1-5 5.1 2.2 5.1 5c-.1 2.8-2.3 5-5.1 5z"/><path d="M45.8 55.6c-2.7 0-4.9-2.2-4.9-4.9s2.2-4.9 4.9-4.9 4.9 2.2 4.9 4.9-2.2 4.9-4.9 4.9zM34.1 60.3v25.4l12.6-6.8L59 85.4V60.3"/><path d="M46.7 33.7l2.8 1.8.8.5h.9l3.2-.1 1.8 2.9.4.7.7.4 3.1 1.6-.1 3.5-.1 1 .6.8 1.8 2.7-1.9 2.9-.5.8v.9l.2 3.3-2.4 1.4-.6.3-.4.6-2.6 3.6-3-.1h-1l-.8.5-2.8 1.8-2.8-1.8-.8-.5h-1l-3.1.1-2.7-3.5-.4-.5-.5-.3-2.5-1.4.2-3.4v-.9l-.5-.8-1.8-2.9 1.7-2.7.5-.8v-.9l-.1-3.7 2.7-1.2.9-.4.4-.9 1.7-3.2 3.3.2 1 .1.9-.6 2.8-1.8m0-3.6L42.2 33l-5.2-.4-2.7 4.9-4.5 2 .1 5.7-2.7 4.3L30 54l-.2 5.3 4.2 2.3 3.6 4.7 4.6-.2 4.4 2.9 4.5-2.9 4.6.2 3.6-4.9 4.2-2.3-.3-5.2 2.9-4.6-3-4.3.3-5.4-4.8-2.5-2.7-4.4-4.9.1-4.3-2.7z"/><path d="M46.8 45c2.4 0 4.4 2 4.4 4.4s-2 4.4-4.4 4.4-4.4-2-4.4-4.4 2-4.4 4.4-4.4m0-3c-4.1 0-7.4 3.3-7.4 7.4s3.3 7.4 7.4 7.4c4.1 0 7.4-3.3 7.4-7.4S50.9 42 46.8 42z"/></symbol><symbol viewBox="0 0 35 35" id="logo-grey_1" xmlns="http://www.w3.org/2000/svg"><g clip-path="url(#hclip0)"><path d="M36.569-3.725H-3.53V36.47h40.098V-3.725z"/><path d="M16.98 13.245l1.745-5.324 1.873 4.951.137.392h8.353l-.372-1.147h-7.167L19.284 5.99h-1.088l-2.422 7.255h1.206zM13.706 17.098L8.44 13.235h6.118l2.363-7.255h-1.206l-1.961 6.108H6.686l-.333 1.04 7.088 5.195.265-1.225zm2.549 4.51L11.647 25l1.52-5.47-7.196-5.246-.383 1.147 6.245 4.55L10 26.362l.882.637 6.383-4.716-1.01-.676zM22.167 19.706l-.942.804 1.912 5.941-4.833-3.47-6.47 4.725.96.716 5.51-4.02 5.578 3.99.883-.637-2.598-8.05zm7.647-4.246l-.334-1.038h-8.255l.49 1.147h5.99l-4.587 3.333 2.608 8.206.97-.755-2.235-7.02 5.353-3.872z"/></g><defs><clipPath id="hclip0"><rect width="35" height="35" rx="2"/></clipPath></defs></symbol><symbol viewBox="0 0 75 75" id="logo-grey_big" xmlns="http://www.w3.org/2000/svg"><g clip-path="url(#iclip0)"><path d="M78.361-7.983H-7.563V78.15h85.924V-7.983z"/><path d="M36.387 28.382l3.74-11.408 4.012 10.61.294.84h17.899l-.798-2.458H46.176l-4.852-13.13h-2.332l-5.19 15.546h2.585zM29.37 36.639L18.088 28.36h13.11l5.063-15.546h-2.585l-4.201 13.088H14.328l-.714 2.227 15.189 11.135.567-2.626zm5.462 9.664l-9.874 7.268 3.256-11.722-15.42-11.24-.82 2.458 13.383 9.748-3.928 13.677 1.89 1.365 13.677-10.105-2.164-1.45zM47.5 42.227l-2.017 1.723 4.097 12.73-10.357-7.436L25.357 59.37l2.059 1.533 11.807-8.613 11.953 8.55 1.891-1.365L47.5 42.227zm16.387-9.097l-.715-2.227H45.483l1.05 2.458H59.37l-9.832 7.143 5.588 17.584 2.08-1.617-4.79-15.042 11.47-8.299z"/></g><defs><clipPath id="iclip0"><rect width="75" height="75" rx="2"/></clipPath></defs></symbol><symbol viewBox="0 0 50 50" id="logo-white_2" xmlns="http://www.w3.org/2000/svg"><g clip-path="url(#jclip0)"><path d="M23.732 17.995l3.062-9.33 3.28 8.678.248.68h14.64l-.649-2.01h-12.57L27.765 5.285l-1.898-.014-4.237 12.714 2.103.01zm-5.733 6.753l-9.229-6.77h10.725L23.629 5.26h-2.11l-3.435 10.707H5.697l-.596 1.817 12.422 9.109.476-2.145zm4.463 7.895l-8.075 5.962 2.667-9.592-12.612-9.197-.667 2.004 10.94 7.976-3.218 11.194 1.56 1.118 11.18-8.272-1.775-1.193zm10.365-3.32l-1.659 1.404 3.359 10.411-8.474-6.085-11.338 8.28 1.682 1.262 9.656-7.052 9.78 7.007 1.544-1.13-4.55-14.097zm13.402-7.45l-.593-1.82H31.18l.85 2.01h10.51l-8.037 5.842 4.562 14.38 1.693-1.31-3.905-12.304 9.377-6.798z"/><path d="M25.002 1.411c13.007 0 23.59 10.584 23.59 23.59 0 13.008-10.583 23.591-23.59 23.591S1.412 38.01 1.412 25.002s10.583-23.59 23.59-23.59zm0-1.411C11.194 0 0 11.194 0 25.002 0 38.81 11.194 50.004 25.002 50.004c13.808 0 25.002-11.194 25.002-25.002C50 11.194 38.806 0 25.002 0z"/></g><defs><clipPath id="jclip0"><path d="M0 0h50v50H0z"/></clipPath></defs></symbol><symbol viewBox="0 0 48 30" id="vk" xmlns="http://www.w3.org/2000/svg"><path d="M24.29 30c6.944 0 4.468-4.396 5.004-5.66-.008-.944-.016-1.852.016-2.404.44.124 1.478.65 3.622 2.734 3.31 3.34 4.156 5.33 6.83 5.33h4.922c1.56 0 2.372-.646 2.778-1.188.392-.524.776-1.444.356-2.876-1.098-3.448-7.502-9.402-7.9-10.03.06-.116.156-.27.206-.35h-.004c1.264-1.67 6.088-8.898 6.798-11.79a.038.038 0 00.004-.016c.384-1.32.032-2.176-.332-2.66C46.042.366 45.17 0 43.992 0H39.07c-1.648 0-2.898.83-3.53 2.344-1.058 2.69-4.03 8.222-6.258 10.18-.068-2.774-.022-4.892.014-6.466C29.368 2.988 29.6 0 26.414 0h-7.736c-1.996 0-3.906 2.18-1.838 4.768 1.808 2.268.65 3.532 1.04 9.824-1.52-1.63-4.224-6.032-6.136-11.658C11.208 1.412 10.396.002 8.11.002H3.188C1.192.002 0 1.09 0 2.912 0 7.004 9.058 30 24.29 30zM8.11 3.002c.434 0 .478 0 .8.914 1.958 5.766 6.35 14.298 9.558 14.298 2.41 0 2.41-2.47 2.41-3.4l-.002-7.404c-.132-2.45-1.024-3.67-1.61-4.41l7.016.008c.004.034-.04 8.19.02 10.166 0 2.806 2.228 4.414 5.706.894 3.67-4.142 6.208-10.334 6.31-10.586.15-.36.28-.482.752-.482h4.942l-.004.018c-.45 2.1-4.892 8.792-6.378 10.87-.024.032-.046.066-.068.1-.654 1.068-1.186 2.248.09 3.908h.002c.116.14.418.468.858.924 1.368 1.412 6.06 6.24 6.476 8.16-.276.044-.576.012-5.226.022-.99 0-1.764-1.48-4.718-4.46-2.656-2.584-4.38-3.64-5.95-3.64-3.048 0-2.826 2.474-2.798 5.466.01 3.244-.01 2.218.012 2.422-.178.07-.688.21-2.018.21C11.6 27 3.336 6.858 3.018 3.008c.11-.01 1.624-.004 5.092-.006z"/></symbol></svg>