<svg xmlns="http://www.w3.org/2000/svg" viewBox="0 0 93.1 92.3"><path d="M65.5 26.1l-2.5.4-.2-.1c-1.8-.7-3.7.1-5.1.8l-.4.2-15.7 2.4.2-1.2c.2-1.1.2-2.2-.1-3.2l-.3-1.1h24.1v1.8zM29.2 10.7c0 .9-10.1-2.5-10.1-2.5S16 14.3 16 10.7s2.9-6.5 6.6-6.5 6.6 2.9 6.6 6.5z" fill="#ef1429"/><path d="M36.2 90.4c.2.7-1.1-1.7-1.5-1-.3.6-1.7-1.9-2.4-1.7-1.5.4-.5-.4-1-1.9L24.5 63l-4.9-.8c-1.4.4 0 .8-1.4.4l-.5 2-8 23.4c-.3.7-4.6 2.7-5.4 3-.3.1-1.9-3-2.3-3-.5 0 1.5 1.5 1.1 1.3-1.1-.6-1.6-2.1-1.2-3.4l11.6-30.4v-27c0-1.9.3-3.2 1.7-4.5 1.4-1.3 1.3-2.3 3.2-2.1 2.4.2 4.5 1.9 5.5 4.4l.4 1 .6 1.9c-2.8 0-3.3 0-3.3 2.8s-1.7 3.6 1.1 3.6l1.7 2v18l11.8 34.8zm-7.1-54H26c-1.5 0-2.8.6-2.8-.9s-2.8-2.7-1.3-2.7h7.2l6.7-5.3c.6-.5 1.2-.7 2-.6.7.1 1.4.4 1.8 1s.7 1.3.6 2c-.1.7-1-.2-1.5.2l-9.6 6.3zM62 35.3l-.2.2-20.1 8.4-12.1-.3.2-3H40l22.6-10.3-.2 1.1-.4.2-.5.5.6-.5c.9 1.1.8 2.6-.1 3.7z" fill="#39549e"/><circle cx="24.6" cy="9.4" r="7.9" fill="none" stroke="#000" stroke-width="3" stroke-miterlimit="10"/><path fill="none" stroke="#000" stroke-width="3" stroke-miterlimit="10" d="M17.1 9.4h20.2"/><path d="M21.6 22.8c2.9 0 5.3 2.3 5.5 5.2l-.3.4H24c-2.3 0-4.9 1.8-4.9 4.4 0 .9.2 2.5 1.5 3.8.6.6 1.7 1.4 3.5 1.4h3.1v18.1l.2.5 10.3 30.1c.2.6.1 1.2-.1 1.7-.3.5-.8.9-1.4 1.1-.2 0-.4.1-.5.1-.9 0-1.7-.6-2-1.4l-8-23.5-.7-2-2.1-.1-2.9-.1-2.1-.1-.9 1.7-9.5 23-.4.9c-.3.8-1.1 1.3-2 1.3-.3 0-.5-.1-.8-.2-1.1-.4-1.6-1.7-1.2-2.7l.5-1.3 11.5-28.7.2-.5V29.1c0-3.5 2.9-6.3 6.3-6.3m0-3c-5.2 0-9.3 4.2-9.3 9.3v26.3L.9 84l-.5 1.3c-1 2.6.2 5.5 2.8 6.6.6.3 1.3.4 1.9.4 2 0 4-1.2 4.8-3.2l.4-.9 9.5-22.9 2.9.1 8 23.5c.7 2.1 2.7 3.5 4.9 3.5.4 0 .8-.1 1.3-.2 2.9-.7 4.6-3.8 3.6-6.7L30.2 55.4V36.2l-1-1.4h-5.1c-1.6 0-1.9-1.3-1.9-2.1s1.2-1.4 1.9-1.4h4.1l2-2.3v-.8c0-4.6-3.9-8.4-8.6-8.4z"/><path d="M60.8 28.8c.7 0 1.3.4 1.7 1 .3.5.3 1 .2 1.5-.2.5-.5.9-1 1.1l-20.2 10H30.1v-3.9h9.2l.6-.3L60 29c.3-.2.5-.2.8-.2m0-3c-.7 0-1.4.1-2 .4l-20 9.2H27.2v9.8h15L63 35.1c2.5-1.2 3.5-4.4 2.1-6.8-.9-1.6-2.6-2.5-4.3-2.5z"/><path d="M64.6 24.8v.6l-22.5 3c.1-.9.1-1.8-.1-2.7-.1-.3-.1-.6-.2-.9h22.8m3-3H36c3.4 2 4.3 6.6 1.7 9.7l-.4.5 30.4-4v-6.2h-.1z"/><path d="M93.1 21.8H60.7v2.9h32.4v-2.9zm-56.6 3c.6 0 1.2.3 1.5.7.3.4.5.9.4 1.4-.1.5-.3 1-.7 1.3l-8.3 6.5h-5.3c-1.1 0-1.9-.9-1.9-1.9 0-1.1.9-1.9 1.9-1.9H28l.8-.6 6.5-5c.4-.5.9-.5 1.2-.5m0-3c-1.1 0-2.2.4-3.1 1.1l-6.4 5h-2.9c-2.7 0-4.9 2.2-4.9 4.9s2.2 4.9 4.9 4.9h6.3l9.1-7.2c2.1-1.7 2.5-4.8.8-6.9-.9-1.2-2.4-1.8-3.8-1.8z"/></svg>