<svg xmlns="http://www.w3.org/2000/svg" width="47" height="50" viewBox="0 0 2.31 2.42" shape-rendering="geometricPrecision" text-rendering="geometricPrecision" image-rendering="optimizeQuality" fill-rule="evenodd" clip-rule="evenodd"><path d="M1.36 1.31v.01-.01zm-1.12.81h.58v-.1c0-.04.03-.07.07-.07h.54c.03 0 .07.03.07.07v.23h.59c.03 0 .05.02.05.05v.12H.17v-.23c0-.04.03-.07.07-.07zM1.8.43c.09 0 .17.08.17.17 0 .1-.08.17-.17.17-.1 0-.17-.07-.17-.17 0-.09.07-.17.17-.17zM1.15.12c.09 0 .17.07.17.17 0 .09-.08.17-.17.17C1.05.46.97.38.97.29c0-.1.08-.17.18-.17zM.48.28c.09 0 .17.08.17.18C.65.55.57.63.48.63.38.63.3.55.3.46.3.36.38.28.48.28zm.64.44h.05l.08-.23h-.21c.02.03.03.08.04.11.02.04.03.08.04.12zM.45.9H.5L.58.67h-.2c0 .04.02.08.03.11.02.04.04.08.04.12zm1.33.14h.04l.04-.12c.01-.02.01-.03.02-.05.01-.03.02-.03.02-.07h-.2l.08.24zM.67.04h.05c.01 0 .03.01.03.02.02.03.04.07.05.1.02.08.04.15.07.23.02.05.04.04.08.07.04.02.04.05.05.09l.06.17c.01.03.01.02 0 .05-.08.14.13.23.18.1.03-.06-.01-.09-.01-.11-.01-.03.05-.19.06-.22.01-.02.01-.03.02-.05.01-.03.02-.03.04-.04.06-.02.06-.01.08-.07.02-.08.05-.15.07-.23.02-.07.03-.1.08-.11h.04c.11.01.02.19 0 .25-.11.33-.03.21-.26.33v.69l.2-.43c.02-.03.03-.07.08-.07 0 .02.08.25.08.25 0 .02-.04.05-.02.12.03.09.16.09.2 0 .02-.07-.03-.1-.02-.13 0-.01.08-.22.08-.24.06.01.07.07.09.11l.22.47c.04.08-.07.15-.13.09-.02-.03-.1-.21-.12-.25l-.01-.01v.45c0 .15.01.31 0 .45 0 .06-.06.11-.12.08-.07-.03-.06-.08-.06-.17v-.44h-.06v.46c0 .08 0 .14-.06.16-.07.02-.12-.04-.13-.1v-.88c-.01.01-.01.02-.02.04s-.01.03-.02.04c-.05.09-.07.23-.18.18 0 .08.01.28 0 .33-.03.11-.17.09-.18 0-.02-.13.01-.38 0-.5-.01-.06.01-.04-.06-.04v.51c0 .12-.14.14-.18.05-.02-.04-.01-.44-.01-.5-.09.05-.11.02-.15-.07-.02-.04-.03-.07-.05-.1-.01-.02-.02-.07-.04-.09.01.07.01.86 0 .89 0 .03-.01.06-.03.08-.02.02-.05.03-.08.02C.5 2.05.5 1.98.5 1.91v-.46H.45v.45c0 .09 0 .14-.06.17-.05.02-.12-.01-.13-.09v-.9l-.06.13c-.02.04-.04.11-.07.13-.01.02-.04.03-.08.02-.04-.01-.07-.06-.04-.12L.23.77C.26.69.25.7.31.67l.05.12C.36.81.4.91.4.92c0 .03-.05.07-.02.13.07.12.24.03.19-.08C.54.9.54.96.58.85.59.83.59.81.6.79.62.74.62.7.65.67.67.68.69.69.7.72l.2.43.02.04.01.03v-.6C.92.61.9.61.88.6.81.56.76.55.74.51.7.4.67.28.63.17.6.09.63.05.67.04zm.91 1.19z" fill="#4877db"/><path d="M1.4 1.27l-.01.02.01-.02zm-1.13.81h.59v-.1c0-.04.03-.07.06-.07h.54c.04 0 .07.03.07.07v.23h.59c.03 0 .05.02.05.05v.13H.2v-.24c0-.04.03-.07.07-.07zM1.83.39c.1 0 .17.08.17.17 0 .1-.07.18-.17.18-.09 0-.17-.08-.17-.18 0-.09.08-.17.17-.17zM1.18.08c.09 0 .17.07.17.17 0 .09-.08.17-.17.17-.1 0-.17-.08-.17-.17 0-.1.07-.17.17-.17zM.51.25C.6.25.68.32.68.42.68.51.6.59.51.59.41.59.34.51.34.42c0-.1.07-.17.17-.17zm.65.43h.04l.08-.23h-.21c.02.04.03.08.05.12.01.03.03.07.04.11zM.49.86h.04L.61.63h-.2c0 .04.03.08.04.11.01.04.03.08.04.12zM1.81 1h.04l.04-.11c.01-.03.01-.04.02-.06.01-.02.02-.03.02-.06h-.2l.08.23zM.7 0h.05c.01 0 .03.01.04.02.02.03.03.07.04.1C.85.2.88.27.9.35.92.4.94.39.98.42c.04.02.04.05.05.09l.07.17c.01.03 0 .02-.01.05-.08.14.13.23.19.1.02-.06-.01-.09-.02-.11-.01-.03.05-.19.06-.22.01-.02.02-.03.03-.05.01-.03.01-.03.03-.04.06-.02.06-.01.08-.07.02-.08.05-.15.07-.22.03-.08.04-.11.08-.12h.04c.11.01.03.19.01.25-.11.33-.04.21-.26.33v.69l.2-.43c.01-.03.02-.07.07-.07.01.02.09.25.09.25 0 .02-.05.05-.03.12.03.09.16.09.2 0 .03-.06-.02-.1-.02-.13 0-.01.08-.22.09-.24.06.01.06.07.09.11l.21.47c.04.09-.07.15-.13.09-.02-.03-.1-.21-.12-.25-.01-.01 0 0 0-.01v.9c-.01.07-.07.11-.13.08-.07-.03-.06-.08-.06-.16v-.45h-.05v.46c0 .08-.01.14-.07.16-.07.02-.12-.04-.12-.09l-.01-.89-.02.04c-.01.02-.01.03-.02.05-.04.08-.07.22-.17.18 0 .07 0 .27-.01.32a.09.09 0 01-.18 0c-.01-.13.01-.37 0-.5 0-.06.01-.04-.06-.04v.51c0 .13-.13.14-.18.05-.01-.04 0-.43 0-.5-.1.05-.12.02-.16-.07-.01-.03-.03-.07-.04-.1-.02-.02-.03-.07-.05-.08.01.06.01.85.01.88-.01.03-.02.06-.04.08-.01.02-.05.03-.08.02-.07-.02-.08-.09-.07-.16v-.46H.48v.46c0 .08 0 .13-.06.16-.05.02-.12-.01-.12-.09-.01-.14 0-.3 0-.45v-.45l-.07.13c-.02.04-.04.11-.06.13-.02.02-.05.03-.08.02-.05-.01-.08-.05-.04-.12L.26.74C.3.66.28.66.34.63l.05.12C.4.77.43.87.43.88c0 .03-.05.07-.01.13.06.12.23.03.19-.08C.58.86.57.92.61.81.62.79.62.77.63.75.65.71.66.66.68.63.7.64.72.65.73.68l.2.43.02.04.02.03v-.6C.95.57.93.57.91.56.84.52.79.51.77.47.73.36.7.24.66.13.64.05.66.01.7 0zm.91 1.19zM.23 2.36h1.92v-.1c0-.01-.01-.02-.03-.02H1.5v-.26c0-.02-.02-.04-.04-.04H.92c-.02 0-.04.02-.04.04v.13H.27c-.02 0-.04.02-.04.04v.21zM1.83.42c-.08 0-.14.06-.14.14 0 .08.06.15.14.15.08 0 .15-.07.15-.15 0-.08-.07-.14-.15-.14zM1.18.1c-.08 0-.15.07-.15.15 0 .08.07.15.15.15.08 0 .14-.07.14-.15 0-.08-.06-.15-.14-.15zM.51.27C.43.27.36.34.36.42c0 .08.07.14.15.14C.59.56.65.5.65.42.65.34.59.27.51.27zm.67.39l.06-.18h-.12c0 .02.01.05.02.08s.03.06.04.1zM.51.83L.57.66H.44c.01.02.02.05.03.08C.48.77.5.8.51.83zm1.32.14l.04-.09c0-.02.01-.04.02-.06 0-.01 0-.02.01-.03h-.13l.06.18zm-.46.42V.56h.01L1.5.5c.01 0 .04-.01.05-.02.01-.01.02-.04.02-.06.01-.02.02-.05.03-.07l.03-.11c.01-.02.01-.03.02-.05 0-.02.01-.03.02-.05 0-.03.02-.08 0-.1 0-.01-.01-.01-.02-.01H1.6c-.02.01-.04.07-.04.09-.02.08-.05.15-.07.23a.21.21 0 01-.04.06c-.01.01-.04.02-.05.03h-.02v.01c-.01 0-.01 0-.01.01-.01.02-.01.03-.02.05 0 .02-.01.03-.02.04 0 .02-.01.05-.02.07-.01.02-.01.04-.02.06 0 0-.01.02-.01.03.01 0 .01.01.01.01.01.01.01.02.01.03.01.03.01.06 0 .09-.02.04-.05.07-.09.08-.03 0-.05 0-.08-.01C1.11.9 1.09.89 1.08.87c-.04-.04-.04-.1-.01-.15 0-.01 0-.01.01-.02-.01 0-.01-.01-.01-.01L1.01.52C1 .5 1 .47.99.45.98.45.98.45.97.44.95.43.93.43.91.41A.055.055 0 01.88.36C.85.28.83.21.8.13.79.11.78.06.77.04.76.03.75.03.75.03H.71C.67.04.68.09.69.12.73.23.76.35.8.46.8.47.8.47.81.47.82.48.83.49.85.5.87.51.9.52.93.53c.01.01.03.02.05.03h.01v1.2c.01.01.01.02.01.03.01.03.04.04.07.04.04-.01.05-.04.05-.08v-.54h.07c.01 0 .03 0 .04.01.01.01.01.02.01.03v.15c0 .05 0 .09-.01.14v.13c0 .04 0 .07.01.11 0 .02.01.03.02.04.02.01.04.01.06.01.02-.01.04-.03.04-.05.01-.02.01-.05.01-.07v-.3l.04.02c.01.01.03.01.04.01.03-.02.06-.08.07-.11.01-.02.02-.05.03-.07 0-.01.01-.02.02-.04s.01-.03.02-.05l.05-.05v.95c.01.05.04.09.09.07.01 0 .02-.01.03-.02.02-.02.02-.08.02-.11v-.49h.11v.55c0 .01 0 .03.01.04 0 .02.02.02.03.03.04.02.09-.01.09-.06.01-.15 0-.3 0-.45v-.52l.05.05c0 .01 0 .01.01.02s.01.03.02.05c.01.02.02.05.03.07.02.03.03.06.04.08 0 .01.01.03.02.04.04.04.12 0 .09-.06L2.06.89c0-.01-.01-.02-.01-.03-.01-.01-.02-.04-.03-.05L2.01.8v.02C2 .85 1.99.88 1.98.9c-.01.03-.02.05-.03.08 0 .01-.01.02-.01.02v.02l.01.03c.02.04.02.07 0 .1-.04.11-.2.11-.24 0a.139.139 0 010-.09c0-.01.01-.02.01-.03.01 0 .01-.01.01-.01-.01-.01-.01-.02-.01-.03L1.69.9C1.68.88 1.67.85 1.66.82c0 0-.01-.01-.01-.02l-.01.01c-.01.01-.01.03-.02.04-.08.18-.17.37-.25.54zm-.39-.12l-.06-.11c0-.01-.01-.02-.01-.03L.71.69C.7.68.7.67.69.67.68.69.67.71.67.73.66.74.66.75.66.76.65.78.64.8.64.82.63.83.62.85.62.87L.61.88s0 .01.01.01c0 .01.01.02.01.03.02.04.01.08-.01.12a.18.18 0 01-.07.05.142.142 0 01-.16-.06.142.142 0 01-.01-.11C.39.91.39.9.4.89V.86C.39.85.39.84.39.82L.36.76.33.67C.32.67.32.67.32.68.31.68.31.69.31.7.3.71.29.73.28.75l-.21.47c-.01.02-.02.04 0 .06l.02.02c.02 0 .04 0 .06-.01.01-.02.02-.05.03-.07l.03-.06.11-.24v1.02c0 .02.01.04.03.06.02.01.04.01.06 0 .01 0 .02-.01.03-.02.01-.01.01-.03.01-.04v-.55h.11v.5c0 .03 0 .07.02.09.01.01.02.02.04.03.02 0 .04-.01.06-.02.01-.01.02-.05.02-.07v-.85c-.01-.01-.01-.01-.01-.02L.68.98l.06.04c.02.02.04.07.05.1.02.03.03.07.04.1.01.02.03.07.06.08.01.01.05-.01.06-.02l.03-.01z" fill="#002d87"/></svg>