<svg xmlns="http://www.w3.org/2000/svg" viewBox="0 0 66.3 88.2"><path d="M1.2 63.5v-52c.9.4 1.9.5 3.2.5l2.2.2v57.5c-4.4-1-5.2-5.4-5.4-6.2zm53.4 6.3H10.2V17h44.3l.1 52.8z" fill="#39549e"/><path d="M3 13c.9.4 2.1.6 3.7.6h50.8v55.1H12c-4.9 0-9-4-9-9V13M0 6.8v52.8c0 6.6 5.4 12 12 12h48.5V10.5H6.7c-.8 0-2-.1-2.7-.4-1.1-.5-4-3.3-4-3.3z"/><path d="M49.4 3v7.5H6.8C4.7 10.5 3 8.8 3 6.8 3 4.7 4.7 3 6.8 3h42.6m1.5-3H6.8C3 0 0 3 0 6.8c0 3.7 3 6.8 6.8 6.8h44.1c.8 0 1.5-.7 1.5-1.5V1.5c0-.8-.7-1.5-1.5-1.5z"/><path fill="none" stroke="#000" stroke-width="3" stroke-miterlimit="10" d="M10.2 12.6v56.5"/><path d="M31.9 46.6l.5-6.5 4.7-4.3 3.9-1 5.4-2.5 6.5 2.1 3.4 1.1 4.7 4.7.8 5.8 2.9 3.8-4.2 5.7-1.1 4.2s-1.4 4-1.4 4.2 1 21.7 1 21.7l-11.9-7.1-12.5 5.9V62.3l-1.5-5.2-.7-4.9-2.8-3 2.3-2.6z" fill="#fff"/><path d="M48.9 79.6c-.5-.3-2.9-.6-3.4-.3l-10.7 6-.7-17.8c.2.1 0-4.8.2-4.8l7.1 2.3 3.5-.4c.6.4 1.3.2 1.9-.2l3.5.1 4.1-1.1c.2 0 .3 1.1.5 1.1v18.6l-6-3.5zm12.2-23.4c-.2.3-.5 1.6-.5 1.9l-2.2 1.5-1.8 2c-.3.2 0 1.3-.2 1.6l.6.9-7.8.9c-.3 0-.8.1-1 .3l-3 2-3-2c-.3-.2-.6-.3-1-.3h-.1l-3.6.2-1.6-3.2c-.2-.3-.5-.6-.8-.8l-3.2-1.6.2-3.6c0-.3-.1-.8-.3-1l-2-3v-2.7c.2-.3.1-1.4.1-1.7l2-3.2-.1-2.6c.3-.2.8-1.1 1-1.4l2.3-1.8 6 .4c.3 0 .8-.1 1-.3l3-2 3 2c.3.2.7.3 1 .3l3.6-.2 1.6 3.2c.2.3.5.6.8.8l3.2 1.6V48c0 .3.1.8.3 1l2 3 .5 4.2z" fill="#ef1429"/><path d="M46.6 54.3c-2.8 0-5.1-2.2-5.1-5s2.3-5 5.1-5 5.1 2.2 5.1 5c-.1 2.8-2.3 5-5.1 5z" fill="#fff"/><path d="M45.8 55.6c-2.7 0-4.9-2.2-4.9-4.9s2.2-4.9 4.9-4.9 4.9 2.2 4.9 4.9-2.2 4.9-4.9 4.9z" fill="#ef1429"/><path fill="none" stroke="#000" stroke-width="3" stroke-miterlimit="10" d="M34.1 60.3v25.4l12.6-6.8L59 85.4V60.3"/><path d="M46.7 33.7l2.8 1.8.8.5h.9l3.2-.1 1.8 2.9.4.7.7.4 3.1 1.6-.1 3.5-.1 1 .6.8 1.8 2.7-1.9 2.9-.5.8v.9l.2 3.3-2.4 1.4-.6.3-.4.6-2.6 3.6-3-.1h-1l-.8.5-2.8 1.8-2.8-1.8-.8-.5h-1l-3.1.1-2.7-3.5-.4-.5-.5-.3-2.5-1.4.2-3.4v-.9l-.5-.8-1.8-2.9 1.7-2.7.5-.8v-.9l-.1-3.7 2.7-1.2.9-.4.4-.9 1.7-3.2 3.3.2 1 .1.9-.6 2.8-1.8m0-3.6L42.2 33l-5.2-.4-2.7 4.9-4.5 2 .1 5.7-2.7 4.3L30 54l-.2 5.3 4.2 2.3 3.6 4.7 4.6-.2 4.4 2.9 4.5-2.9 4.6.2 3.6-4.9 4.2-2.3-.3-5.2 2.9-4.6-3-4.3.3-5.4-4.8-2.5-2.7-4.4-4.9.1-4.3-2.7z"/><path d="M46.8 45c2.4 0 4.4 2 4.4 4.4s-2 4.4-4.4 4.4-4.4-2-4.4-4.4 2-4.4 4.4-4.4m0-3c-4.1 0-7.4 3.3-7.4 7.4s3.3 7.4 7.4 7.4c4.1 0 7.4-3.3 7.4-7.4S50.9 42 46.8 42z"/></svg>