<svg xmlns="http://www.w3.org/2000/svg" width="42" height="49" viewBox="0 0 1.83 2.14" shape-rendering="geometricPrecision" text-rendering="geometricPrecision" image-rendering="optimizeQuality" fill-rule="evenodd" clip-rule="evenodd"><path d="M.8.03h.19c.06 0 .1.05.1.1v.01c0 .05-.03.09-.08.1C1 .24.99.25.99.26v.07c0 .01.01.02.02.02.1.01.19.04.27.08l.06-.09c.03-.04.1-.06.15-.03.04.04.05.1.02.15l-.05.08c.2.16.34.42.34.7 0 .5-.41.9-.9.9-.5 0-.9-.4-.9-.9C0 .79.34.41.78.35.79.35.8.34.8.33V.26C.8.25.8.24.78.24A.108.108 0 01.7.14V.13c0-.05.05-.1.1-.1zm.02 1.15L1.1.87c.03-.04.1-.04.14-.01v.01c.04.03.05.1.01.14l-.28.31c-.04.04-.1.04-.15.01v-.01c-.04-.03-.04-.1 0-.14zM.9.53c.39 0 .71.32.71.71 0 .39-.32.71-.71.71-.39 0-.71-.32-.71-.71C.19.85.51.53.9.53z" fill="#4877db"/><path d="M.84 0h.19c.05 0 .1.05.1.1s-.04.09-.09.1c-.01.01-.01.02-.01.03v.06c0 .02.01.03.02.03.09.01.18.04.27.08l.06-.09c.03-.05.09-.06.14-.03.05.03.06.1.03.14l-.06.09c.21.16.34.41.34.7 0 .49-.4.9-.9.9a.91.91 0 01-.9-.9C.03.75.37.38.81.32.83.32.84.31.84.29V.23C.84.22.83.21.82.2A.097.097 0 01.74.1c0-.05.04-.1.1-.1zm.01 1.15l.28-.31c.04-.04.1-.05.14-.01.05.04.05.1.01.15L1 1.29c-.04.04-.1.04-.14 0-.05-.04-.05-.1-.01-.14zM.93.5c.39 0 .71.32.71.71 0 .39-.32.71-.71.71-.39 0-.71-.32-.71-.71C.22.82.54.5.93.5zM.84.03C.8.03.76.06.76.1c0 .04.03.07.06.08.03 0 .04.02.04.05v.06C.86.32.84.34.82.34a.874.874 0 00.11 1.74.87.87 0 00.54-1.55L1.45.51l.07-.1C1.55.37 1.54.33 1.5.3a.078.078 0 00-.1.02l-.07.11L1.3.42C1.22.38 1.13.36 1.04.34 1.02.34 1 .32 1 .29V.23c0-.03.02-.05.04-.05.03-.01.06-.04.06-.08S1.07.03 1.03.03H.84zm.09.44c.41 0 .74.33.74.74s-.33.73-.74.73a.736.736 0 010-1.47zm-.06.7c-.03.03-.03.07 0 .1h.01c.03.03.07.03.1 0l.28-.31c.03-.03.03-.08 0-.11h-.01c-.03-.03-.07-.02-.1.01l-.28.31z" fill="#002d87"/></svg>