<svg xmlns="http://www.w3.org/2000/svg" viewBox="0 0 95.8 91.8"><path d="M65.8 13.5c0-.3.2-.6.2-.9l.5-.6.9-2.2-1.4.8h6.9l.2.8c.3 1.5.5 3.1.5 4.8 0 5.8-1.2 10.8-4.6 13.6-2 1.6-3.9 1.3-6.7 1.3H62l-1-.4h-.4c2.9-4.7 5.2-10.3 5.2-17.2zM29.4 7l.1-.8h33l.1.8c.3 1.9.5 3.9.5 6 0 9.9-1.9 19.2-10.7 22l.5 1 .6 1.3c.4.7-.6 2.3-.6 3.1 0 .9-.3.1-.8.9l-1.3.6h-.1c3.2 1.2 5.3 6.6 6.4 10.2l.4 1.3H34.8l.4-1.3c1-3.6 3.4-8.8 6.6-9.9l1.3-1.2-.4-.3c-.5-.7-.4.1-.4-.8 0-.8-.5-.8-.1-1.5l.7-1.1.2-2.2C34.3 32.3 29 23 29 13.1c-.1-2.3.1-4.3.4-6.1zm6 23.4l-4 .5-1.4-.4-.3-.1c-2.8 0-3.6-.6-5.6-2.2-3.4-2.8-6.3-6.2-6.3-12 0-1.7.2-3.3.5-4.8l.2-.8h11.1l-.2 1.6-.2 1.6c0 .3.4 1.6.4 1.9.1 7 2.9 10 5.8 14.7z" fill="#ef1429"/><path d="M89.6 90.9H0v.5-24.2h24.8V75h3V57.2h34.1v18.4-.3h6.3v1-1h21.4" fill="#39549e"/><path d="M49.7 29.8l1.4 1.8s7.4-4.7 7-21.2h-2.5c0 .1 1.1 12.2-5.9 19.4z" fill="#fff"/><path d="M65.2 54v18h27.6v16.9H3V64h27.8V54h34.4m3-3H27.8v10H0v30.8h95.8V68.9H68.2V51z"/><path d="M68.3 71.3h-3.1v4h3.1v-4zm0 14h-3.1v4h3.1v-4zm-37.6 0h-3.1v4h3.1v-4zm.1-21.6h-3.1V75h3.1V63.7z"/><path d="M34.7 51.3s.5-7.5 7.3-10.9c0 0-1.1-1.8 0-4.8 0 0-3.3-1.4-6.5-5.2-4.1-4.9-8.2-13.7-5.6-28.9H66s.2.7.4 1.9c1 6 2.6 24.5-12.4 32.2 0 0 .8 2.6-.1 4.8 0 0 6.4 3 7.2 10.3l-.1 1.6" fill="none" stroke="#000" stroke-width="3" stroke-miterlimit="10"/><path d="M28.7 6.3H19s-7.5 24.5 17.3 25m30.5-25h9.7s7.3 23.9-16.4 25" fill="none" stroke="#000" stroke-width="3" stroke-miterlimit="10"/></svg>