<svg xmlns="http://www.w3.org/2000/svg" width="56" height="50" viewBox="0 0 3.27 2.91" shape-rendering="geometricPrecision" text-rendering="geometricPrecision" image-rendering="optimizeQuality" fill-rule="evenodd" clip-rule="evenodd"><path d="M2.34.88C2.31.86 2.33.87 2.31.84 2.29.81 2.27.81 2.27.77c.03.04.03.07.1.11 0-.02 0-.02.02-.04-.05-.02-.08-.06-.1-.12l.09-.04c0 .04.02.15.02.18 0 .02-.02.04-.06.02zM1.78.04a.246.246 0 010 .49c-.14 0-.25-.11-.25-.24 0-.14.11-.25.25-.25zm1.21.19V.2c.03 0 .02 0 .04.01-.02.03 0 .01-.04.02zm.07-.05c0-.01.03-.04.03 0s-.03.01-.03 0zm.07-.04h.03v.02h-.03V.14zM1.75.92c.04 0 .05-.02.08-.02.04 0 .01-.01.03.01-.02.03-.08.04-.12.06-.02-.04-.03-.09-.05-.13A.534.534 0 011.63.7C1.52.44 1.44.45 1.19.35 1.14.33 1.09.32 1.05.3.93.26.88.23.78.31L.38.6C.31.65.23.72.28.81c.03.05.08.07.14.07C.47.88.63.75.68.71L.85.58C.87.56.9.54.92.53c.02.01.1.04.13.05-.08.11-.27.31-.37.43-.02.02-.03.03-.04.06-.06.06-.09.11-.1.2l-.07.74c-.01.04-.06.09-.08.12l-.29.42c-.05.07-.1.11-.1.21 0 .1.13.21.27.12.05-.03.12-.16.16-.21.04-.05.07-.1.1-.15l.21-.29c.05-.07.06-.09.07-.2.01-.11.04-.35.04-.45.04.02.18.21.21.26l-.33.52c-.03.05-.06.09-.06.16s.07.16.14.16c.13 0 .14-.02.21-.13l.33-.51c.09-.15.15-.2.02-.37-.06-.07-.21-.28-.25-.31.06-.09.17-.22.24-.3.02-.02.02-.03.04-.05.02-.02.03-.02.04-.05.03.02.03.05.05.08.01.04.02.06.04.1.05.12.11.17.25.1.09-.04.19-.08.28-.12.01.08.09.05.15.03.03-.01.05-.03.07-.04 0-.15.05-.1.05-.19.18 0 .09-.1.09-.23 0-.05.05-.09.09-.1.05.06.17.25.25.34.03 0 .09-.05.09-.08 0-.02-.05-.07-.06-.09-.02-.02-.03-.02-.04-.04-.02-.04 0-.04-.04-.04 0-.06-.02-.04-.04-.07L2.6.49c.03-.03.26-.14.3-.16.08-.02.11-.03.17-.06.06-.03.11-.05.16-.08L3.17.05c-.07.04-.13.07-.2.1-.04.02-.06.04-.09.06-.09.06-.2.11-.3.16-.27.13-.53.25-.8.38-.16.07-.03.17-.03.17z" fill="#4877db"/><path d="M2.39.84C2.36.82 2.37.83 2.36.8 2.33.77 2.31.77 2.31.73c.03.03.03.06.1.11L2.43.8C2.38.78 2.35.74 2.34.68l.08-.04c.01.04.03.15.03.18 0 .02-.02.04-.06.02zM1.82 0c.14 0 .25.11.25.25 0 .13-.11.24-.25.24S1.58.38 1.58.25c0-.14.1-.25.24-.25zm1.22.19V.16c.02 0 .01 0 .03.01-.02.03.01.01-.03.02zM3.1.14c0-.01.03-.04.03 0s-.03.01-.03 0zm.07-.05h.03v.03h-.03V.09zM1.8.87c.03 0 .04-.01.08-.01s0-.01.03 0c-.02.03-.09.05-.12.07-.02-.04-.04-.09-.06-.14C1.71.75 1.69.7 1.67.66 1.56.4 1.49.41 1.23.31 1.18.29 1.14.28 1.09.26.98.22.92.19.82.26l-.39.3C.35.61.28.68.33.77c.03.05.08.07.14.07C.52.84.67.7.72.67L.9.53C.92.52.94.5.96.49c.02.01.1.04.13.04C1.01.65.82.85.73.97l-.05.05c-.05.07-.09.12-.09.21l-.08.74c0 .04-.05.08-.08.12l-.29.42c-.04.07-.09.11-.09.21 0 .09.12.21.26.12.06-.04.13-.16.17-.21.03-.05.06-.1.1-.15l.21-.3c.05-.07.05-.08.06-.19.01-.11.05-.35.05-.46.04.03.17.22.21.27l-.33.52c-.04.05-.07.09-.07.16s.07.16.14.16c.13 0 .14-.03.21-.13L1.39 2c.1-.16.16-.2.02-.37-.05-.07-.2-.28-.25-.32.04-.05.32-.36.33-.39.02.02.07.14.08.18.06.12.11.17.25.1.1-.05.2-.08.29-.12.01.08.08.05.14.03.03-.01.06-.03.08-.04 0-.15.04-.11.05-.19.17 0 .09-.1.09-.24 0-.04.05-.09.09-.1.05.07.17.26.25.35.03-.01.09-.05.09-.08 0-.02-.05-.07-.07-.09C2.82.7 2.81.7 2.79.68 2.78.64 2.8.64 2.75.64c0-.06-.01-.04-.03-.08L2.64.45c.04-.03.27-.14.31-.16.07-.02.1-.03.17-.06.05-.03.1-.05.15-.08L3.21.01c-.06.04-.13.07-.2.1-.04.02-.05.03-.08.06-.09.06-.21.11-.31.15-.26.13-.53.26-.79.39-.17.07-.04.16-.03.16zm.02-.83c-.12 0-.21.09-.21.21 0 .11.09.2.21.2s.21-.09.21-.2c0-.12-.09-.21-.21-.21zm.52.81s0-.01-.01-.01V.82L2.3.79C2.28.77 2.28.75 2.28.73L2.27.68c.04-.02.28-.17.28-.17L2.57.5l.02.02.06.09c.02.04.05.07.08.11.03.04.06.09.09.13.01-.01.04-.03.04-.04a.317.317 0 00-.05-.06C2.79.72 2.78.72 2.76.69c0-.01 0-.01-.01-.02h-.03V.64c0-.01 0-.02-.01-.02 0-.01 0-.01-.01-.01 0-.01-.01-.02-.01-.03L2.6.45l.02-.02c.01-.02.04-.04.06-.05.03-.02.06-.03.09-.05.04-.01.07-.03.1-.05.02 0 .05-.02.07-.02l.09-.03.01-.01L3 .23V.16c-.02.01-.03.02-.05.04-.1.06-.21.11-.31.16-.27.13-.53.25-.8.38-.02.01-.07.03-.06.06.01.01.02.03.03.04 0 0 .01-.01.02-.01.01-.01.03-.01.05-.01.02 0 .04 0 .05.01l.03.02-.02.04c-.03.04-.09.05-.13.07l-.04.02-.01-.03C1.73.9 1.72.85 1.7.81 1.68.77 1.66.72 1.64.68 1.6.6 1.56.51 1.49.46 1.46.43 1.42.42 1.39.4 1.33.38 1.28.36 1.22.34 1.17.32 1.13.31 1.08.29A.689.689 0 011 .26C.98.26.96.25.94.25.9.25.87.27.84.29l-.39.3C.44.59.44.6.43.6.4.62.36.65.35.69c0 .02 0 .05.01.07C.38.79.43.8.47.8.49.8.56.75.58.73.6.71.63.7.65.68.67.67.68.65.7.64L.88.51C.9.49.92.47.94.46L.96.45l.02.01c.02.01.09.04.11.04h.07l-.04.05c-.02.04-.05.08-.08.11C1 .71.97.75.93.79.87.86.81.92.75.99c-.01.02-.03.04-.04.06-.05.06-.08.11-.09.18v.01l-.07.73c-.01.05-.06.1-.09.14l-.29.42c-.04.06-.09.1-.09.19 0 .04.03.08.06.1.05.03.11.02.15-.01.05-.03.12-.15.16-.2.03-.05.06-.1.1-.15l.21-.3c.01-.02.03-.04.04-.06.01-.03.01-.08.02-.11 0-.07.01-.15.02-.22.01-.04.01-.09.02-.13v-.17l.06.03c.02.02.04.04.05.06.03.03.05.06.07.09.03.04.07.08.1.13l.01.02-.34.54c-.03.05-.06.08-.06.14 0 .02.01.05.02.07.02.02.05.05.08.05s.08 0 .11-.02c.02-.01.06-.07.07-.09l.33-.51c.02-.03.04-.07.07-.1.01-.02.02-.05.02-.07.01-.06-.04-.12-.07-.16-.01-.02-.03-.04-.05-.07-.02-.02-.04-.05-.06-.08-.03-.04-.05-.07-.08-.1-.01-.02-.02-.03-.03-.04l-.02-.02-.02-.02.01-.03.03-.03c.01-.01.02-.03.04-.04.03-.04.06-.08.1-.12.03-.04.07-.08.1-.12.04-.06.05-.05.06-.12l.05.03c.03.03.08.15.1.19.01.04.04.1.08.11.03.02.08 0 .12-.02.09-.05.19-.08.28-.13l.05-.02.01.05v.02c.02.01.07-.01.09-.02.02 0 .04-.01.05-.02 0-.03.01-.06.02-.09 0-.02.01-.03.02-.04.01-.01.01-.02.01-.04V.85z" fill="#002d87"/></svg>