<svg width="75" height="75" fill="none" xmlns="http://www.w3.org/2000/svg"><g clip-path="url(#clip0)"><path d="M78.361-7.983H-7.563V78.15h85.924V-7.983z" fill="#D9D9D9"/><path d="M36.387 28.382l3.74-11.408 4.012 10.61.294.84h17.899l-.798-2.458H46.176l-4.852-13.13h-2.332l-5.19 15.546h2.585z" fill="#fff"/><path d="M29.37 36.639L18.088 28.36h13.11l5.063-15.546h-2.585l-4.201 13.088H14.328l-.714 2.227 15.189 11.135.567-2.626zm5.462 9.664l-9.874 7.268 3.256-11.722-15.42-11.24-.82 2.458 13.383 9.748-3.928 13.677 1.89 1.365 13.677-10.105-2.164-1.45z" fill="#FA0F0F"/><path d="M47.5 42.227l-2.017 1.723 4.097 12.73-10.357-7.436L25.357 59.37l2.059 1.533 11.807-8.613 11.953 8.55 1.891-1.365L47.5 42.227zm16.387-9.097l-.715-2.227H45.483l1.05 2.458H59.37l-9.832 7.143 5.588 17.584 2.08-1.617-4.79-15.042 11.47-8.299z" fill="#142E7C"/></g><defs><clipPath id="clip0"><rect width="75" height="75" rx="2" fill="#fff"/></clipPath></defs></svg>