<svg width="35" height="35" fill="none" xmlns="http://www.w3.org/2000/svg"><g clip-path="url(#clip0)"><path d="M36.569-3.725H-3.53V36.47h40.098V-3.725z" fill="#D9D9D9"/><path d="M16.98 13.245l1.745-5.324 1.873 4.951.137.392h8.353l-.372-1.147h-7.167L19.284 5.99h-1.088l-2.422 7.255h1.206z" fill="#fff"/><path d="M13.706 17.098L8.44 13.235h6.118l2.363-7.255h-1.206l-1.961 6.108H6.686l-.333 1.04 7.088 5.195.265-1.225zm2.549 4.51L11.647 25l1.52-5.47-7.196-5.246-.383 1.147 6.245 4.55L10 26.362l.882.637 6.383-4.716-1.01-.676z" fill="#FA0F0F"/><path d="M22.167 19.706l-.942.804 1.912 5.941-4.833-3.47-6.47 4.725.96.716 5.51-4.02 5.578 3.99.883-.637-2.598-8.05zm7.647-4.246l-.334-1.038h-8.255l.49 1.147h5.99l-4.587 3.333 2.608 8.206.97-.755-2.235-7.02 5.353-3.872z" fill="#142E7C"/></g><defs><clipPath id="clip0"><rect width="35" height="35" rx="2" fill="#fff"/></clipPath></defs></svg>