<svg width="50" height="50" fill="none" xmlns="http://www.w3.org/2000/svg"><g clip-path="url(#clip0)" fill="#fff"><path d="M23.732 17.995l3.062-9.33 3.28 8.678.248.68h14.64l-.649-2.01h-12.57L27.765 5.285l-1.898-.014-4.237 12.714 2.103.01zm-5.733 6.753l-9.229-6.77h10.725L23.629 5.26h-2.11l-3.435 10.707H5.697l-.596 1.817 12.422 9.109.476-2.145zm4.463 7.895l-8.075 5.962 2.667-9.592-12.612-9.197-.667 2.004 10.94 7.976-3.218 11.194 1.56 1.118 11.18-8.272-1.775-1.193zm10.365-3.32l-1.659 1.404 3.359 10.411-8.474-6.085-11.338 8.28 1.682 1.262 9.656-7.052 9.78 7.007 1.544-1.13-4.55-14.097zm13.402-7.45l-.593-1.82H31.18l.85 2.01h10.51l-8.037 5.842 4.562 14.38 1.693-1.31-3.905-12.304 9.377-6.798z"/><path d="M25.002 1.411c13.007 0 23.59 10.584 23.59 23.59 0 13.008-10.583 23.591-23.59 23.591S1.412 38.01 1.412 25.002s10.583-23.59 23.59-23.59zm0-1.411C11.194 0 0 11.194 0 25.002 0 38.81 11.194 50.004 25.002 50.004c13.808 0 25.002-11.194 25.002-25.002C50 11.194 38.806 0 25.002 0z"/></g><defs><clipPath id="clip0"><path fill="#fff" d="M0 0h50v50H0z"/></clipPath></defs></svg>