<svg width="48" height="30" fill="none" xmlns="http://www.w3.org/2000/svg"><path d="M24.29 30c6.944 0 4.468-4.396 5.004-5.66-.008-.944-.016-1.852.016-2.404.44.124 1.478.65 3.622 2.734 3.31 3.34 4.156 5.33 6.83 5.33h4.922c1.56 0 2.372-.646 2.778-1.188.392-.524.776-1.444.356-2.876-1.098-3.448-7.502-9.402-7.9-10.03.06-.116.156-.27.206-.35h-.004c1.264-1.67 6.088-8.898 6.798-11.79a.038.038 0 00.004-.016c.384-1.32.032-2.176-.332-2.66C46.042.366 45.17 0 43.992 0H39.07c-1.648 0-2.898.83-3.53 2.344-1.058 2.69-4.03 8.222-6.258 10.18-.068-2.774-.022-4.892.014-6.466C29.368 2.988 29.6 0 26.414 0h-7.736c-1.996 0-3.906 2.18-1.838 4.768 1.808 2.268.65 3.532 1.04 9.824-1.52-1.63-4.224-6.032-6.136-11.658C11.208 1.412 10.396.002 8.11.002H3.188C1.192.002 0 1.09 0 2.912 0 7.004 9.058 30 24.29 30zM8.11 3.002c.434 0 .478 0 .8.914 1.958 5.766 6.35 14.298 9.558 14.298 2.41 0 2.41-2.47 2.41-3.4l-.002-7.404c-.132-2.45-1.024-3.67-1.61-4.41l7.016.008c.004.034-.04 8.19.02 10.166 0 2.806 2.228 4.414 5.706.894 3.67-4.142 6.208-10.334 6.31-10.586.15-.36.28-.482.752-.482h4.942l-.004.018c-.45 2.1-4.892 8.792-6.378 10.87-.024.032-.046.066-.068.1-.654 1.068-1.186 2.248.09 3.908h.002c.116.14.418.468.858.924 1.368 1.412 6.06 6.24 6.476 8.16-.276.044-.576.012-5.226.022-.99 0-1.764-1.48-4.718-4.46-2.656-2.584-4.38-3.64-5.95-3.64-3.048 0-2.826 2.474-2.798 5.466.01 3.244-.01 2.218.012 2.422-.178.07-.688.21-2.018.21C11.6 27 3.336 6.858 3.018 3.008c.11-.01 1.624-.004 5.092-.006z" fill="#fff"/></svg>